# xmcd
#
# Track frame offsets:
#	150
#	16640
#	32630
#	47123
#	67218
#	94828
#	115770
#	133468
#	156133
#	173623
#	189448
#	204193
#	223775
#	251245
#	271785
#	289018
#
# Disc length: 4152 seconds
#
# Revision: 1
# Processed by: cddbd v1.5.1PL0 Copyright (c) Steve Scherf et al.
# Submitted via: CDex 1.50Beta5
#
DISCID=e6103610
DTITLE=さまざまなアーティスト - マイソング(クラス合唱用)Disc 2 Disc 2
DYEAR=1900
DGENRE=
TTITLE0=地球の詩
TTITLE1=COSMOS
TTITLE2=道
TTITLE3=With You Smile
TTITLE4=今
TTITLE5=君とみた海
TTITLE6=夏
TTITLE7=そのひとがうたうとき
TTITLE8=地球の詩
TTITLE9=COSMOS
TTITLE10=道
TTITLE11=With You Smile
TTITLE12=今
TTITLE13=君とみた海
TTITLE14=夏
TTITLE15=そのひとがうたうとき
EXTD=
EXTT0=
EXTT1=
EXTT2=
EXTT3=
EXTT4=
EXTT5=
EXTT6=
EXTT7=
EXTT8=
EXTT9=
EXTT10=
EXTT11=
EXTT12=
EXTT13=
EXTT14=
EXTT15=
PLAYORDER=
